# AST/ASF file generated using VICON BodyLanguage
# -----------------------------------------------
:version 1.10
:name VICON
:units
  mass 1.0
  length 0.45
  angle deg
:documentation
   .ast/.asf automatically generated from VICON data using
   VICON BodyBuilder and BodyLanguage model FoxedUp or BRILLIANT.MOD
:root
   order TX TY TZ RX RY RZ
   axis XYZ
   position 0 0 0  
   orientation 0 0 0 
:bonedata
  begin
     id 1 
     name lhipjoint
     direction 0.589753 -0.68606 0.426044 
     length 2.54082 
     axis 0 0 0  XYZ
  end
  begin
     id 2 
     name lfemur
     direction 0.34202 -0.939693 0  
     length 7.04539  
     axis 0 0 20  XYZ
    dof rx ry rz
    limits (-160.0 20.0)
           (-70.0 70.0)
           (-60.0 70.0)
  end
  begin
     id 3 
     name ltibia
     direction 0.34202 -0.939693 0   
     length 7.83772   
     axis 0 0 20   XYZ
    dof rx
    limits (-10.0 170.0)
  end
  begin
     id 4 
     name lfoot
     direction 0.0596604 -0.163915 0.984669   
     length 2.39542   
     axis -90 7.62852e-016 20   XYZ
    dof rx rz
    limits (-45.0 90.0)
           (-70.0 20.0)
  end
  begin
     id 5 
     name ltoes
     direction 1.53514e-011 -4.21954e-011 1   
     length 1.2047   
     axis -90 7.62852e-016 20   XYZ
    dof rx
    limits (-90.0 20.0)
  end
  begin
     id 6 
     name rhipjoint
     direction -0.580585 -0.69168 0.429534   
     length 2.52018  
     axis 0 0 0  XYZ 
  end
  begin
     id 7 
     name rfemur
     direction -0.34202 -0.939693 0   
     length 7.0101   
     axis 0 0 -20   XYZ
    dof rx ry rz
    limits (-160.0 20.0)
           (-70.0 70.0)
           (-70.0 60.0)
  end
  begin
     id 8 
     name rtibia
     direction -0.34202 -0.939693 0   
     length 7.70628   
     axis 0 0 -20   XYZ
    dof rx
    limits (-10.0 170.0)
 end
 begin
     id 9 
     name rfoot
     direction -0.0696237 -0.19129 0.979061   
     length 2.52466  
     axis -90 -7.62852e-016 -20   XYZ
    dof rx rz
    limits (-45.0 90.0)
           (-20.0 70.0)
  end
  begin
     id 10 
     name rtoes
     direction -1.53519e-011 -4.21793e-011 1   
     length 1.266   
     axis -90 -7.62852e-016 -20   XYZ
    dof rx
    limits (-90.0 20.0)
  end
  begin
     id 11 
     name lowerback
     direction 0.00381965 0.995707 -0.0924856   
     length 2.20825   
     axis 0 0 0   XYZ
    dof rx ry rz
    limits (-20.0 45.0)
           (-30.0 30.0)
           (-30.0 30.0)
  end
  begin
     id 12 
     name upperback
     direction -0.0139043 0.999634 -0.0231929   
     length 2.21517   
     axis 0 0 0   XYZ
    dof rx ry rz
    limits (-20.0 45.0)
           (-30.0 30.0)
           (-30.0 30.0)
  end
  begin
     id 13 
     name thorax
     direction -0.0143933 0.999691 0.0202892   
     length 2.22911   
     axis 0 0 0   XYZ
    dof rx ry rz
    limits (-20.0 45.0)
           (-30.0 30.0)
           (-30.0 30.0)
  end
  begin
     id 14 
     name lowerneck
     direction -0.0251153 0.981819 0.188153   
     length 1.61782   
     axis 0 0 0   XYZ
    dof rx ry rz
    limits (-20.0 45.0)
           (-30.0 30.0)
           (-30.0 30.0)
  end
  begin
     id 15 
     name upperneck
     direction 0.0563891 0.969357 -0.239095   
     length 1.64526   
     axis 0 0 0   XYZ
    dof rx ry rz
    limits (-20.0 45.0)
           (-30.0 30.0)
           (-30.0 30.0)
  end
  begin
     id 16
     name head
     direction 0.0208328 0.99459 -0.101773  
     length 1.67436  
     axis 0 0 0   XYZ
    dof rx ry rz
    limits (-20.0 45.0)
           (-30.0 30.0)
           (-30.0 30.0)
  end
  begin
     id 17 
     name lclavicle
     direction 0.917689 0.397224 0.00772059  
     length 3.31102  
     axis 0 0 0   XYZ
    dof ry rz
    limits (-20.0 10.0)
           (0.0 20.0)
  end
  begin
     id 18 
     name lhumerus
     direction 1 -4.4896e-011 2.32308e-027   
     length 5.25537   
     axis 180 -30 -90   XYZ
    dof rx ry rz
    limits (-60.0 90.0)
           (-90.0 90.0)
           (-90.0 90.0)
  end
  begin
     id 19
     name lradius
     direction 1 -4.49005e-011 -2.04271e-027   
     length 3.38855   
     axis 180 -30 -90   XYZ
    dof rx
    limits (-10.0 170.0)
  end
  begin
     id 20
     name lwrist
     direction 1 -4.48892e-011 2.56952e-028   
     length 1.69428   
     axis -5.12785e-016 90 90   XYZ
    dof ry
    limits (-180.0 0.0)
 end
  begin
     id 21 
     name lhand
     direction 1 -4.48966e-011 5.13905e-028   
     length 0.614516   
     axis -3.27915e-016 90 90   XYZ
    dof rx rz
    limits (-90.0 90.0)
           (-45.0 45.0)
  end
  begin
     id 22 
     name lfingers
     direction 1 -4.48979e-011 1.02781e-027   
     length 0.495439   
     axis -6.5583e-016 90 90   XYZ
    dof rx
    limits (0.0 90.0)
  end
  begin
     id 23
     name lthumb
     direction 0.707107 -6.35001e-011 0.707107   
     length 0.711354   
     axis -90 45 2.85299e-015   XYZ
    dof rx rz
    limits (-45.0 45.0)
           (-45.0 45.0)
  end
  begin
     id 24 
     name rclavicle
     direction -0.938556 0.342765 -0.0403177   
     length 3.27019  
     axis 0 0 0   XYZ 
    dof ry rz
    limits (-10.0 20.0)
           (-20.0 0.0)
  end
  begin
     id 25 
     name rhumerus
     direction -1 -4.48966e-011 2.52291e-027  
     length 5.38183   
     axis 180 30 90   XYZ
    dof rx ry rz
    limits (-90.0 60.0)
           (-90.0 90.0)
           (-90.0 90.0)
  end
  begin
     id 26 
     name rradius
     direction -1 -4.4896e-011 1.5797e-027   
     length 3.16988   
     axis 180 30 90   XYZ
    dof rx
    limits (-10.0 170.0)
  end
  begin
     id 27 
     name rwrist
     direction -1 -4.48947e-011 2.56952e-028   
     length 1.58494   
     axis -5.12785e-016 -90 -90   XYZ
    dof ry
    limits (-180.0 0.0)
  end
  begin
     id 28
     name rhand
     direction -1 -4.49098e-011 5.13905e-028   
     length 0.637679   
     axis -3.27915e-016 -90 -90   XYZ
    dof rx rz
    limits (-90.0 90.0)
           (-45.0 45.0)
  end
  begin
     id 29
     name rfingers
     direction -1 -4.49026e-011 1.02781e-027   
     length 0.514113   
     axis -6.5583e-016 -90 -90   XYZ
    dof rx
    limits (0.0 90.0)
  end
  begin
     id 30
     name rthumb
     direction -0.707107 -6.3491e-011 0.707107   
     length 0.738167   
     axis -90 -45 -2.85299e-015   XYZ
    dof rx rz
    limits (-45.0 45.0)
           (-45.0 45.0)
  end
:hierarchy
  begin
    root lhipjoint rhipjoint lowerback
    lhipjoint lfemur
    lfemur ltibia
    ltibia lfoot
    lfoot ltoes
    rhipjoint rfemur
    rfemur rtibia
    rtibia rfoot
    rfoot rtoes
    lowerback upperback
    upperback thorax
    thorax lowerneck lclavicle rclavicle
    lowerneck upperneck
    upperneck head
    lclavicle lhumerus
    lhumerus lradius
    lradius lwrist
    lwrist lhand lthumb
    lhand lfingers
    rclavicle rhumerus
    rhumerus rradius
    rradius rwrist
    rwrist rhand rthumb
    rhand rfingers
  end

#!OML:ASF H:\Swim\Project 1\Capture day 1\Session 1\swimmer.ASF
:FULLY-SPECIFIED
:DEGREES
1591
root 4.4782 11.7133 24.9308 107.522 -2.63073 -3.73422
lowerback -6.33663 0.55008 -2.28963
upperback -10.3982 0.70802 -1.60973
thorax -7.36052 0.470817 -0.416951
lowerneck -3.24615 -3.94194 -11.5876
upperneck -12.4656 -3.94968 15.8044
head -2.47423 -2.0784 6.85155
rclavicle -5.96354e-015 -7.90169e-015
rhumerus 33.3302 -0.346033 -7.84093
rradius 38.0085
rwrist -22.4328
rhand -14.1481 -4.57529
rfingers 7.12502
rthumb 11.9863 -34.2121
lclavicle -5.96354e-015 -7.90169e-015
lhumerus 31.5653 0.229441 -0.493183
lradius 37.6944
lwrist 0.333359
lhand -3.64191 17.5456
lfingers 7.12502
lthumb 22.0978 -313.697
rfemur -26.5372 5.95503 23.8452
rtibia 36.6082
rfoot 17.8502 -5.11064
rtoes 13.4383
lfemur -26.7317 -0.871195 -21.1052
ltibia 37.7955
lfoot 11.3968 -1.21153
ltoes -3.55696
1592
root 4.4709 11.6894 24.9638 107.795 -2.61731 -3.60535
lowerback -6.54714 0.498888 -2.25243
upperback -10.3873 0.640363 -1.66683
thorax -7.22659 0.429918 -0.494273
lowerneck -4.02973 -4.03027 -11.558
upperneck -12.4206 -3.99041 15.97
head -2.31857 -2.07672 6.88088
rclavicle -3.97569e-016 -8.59744e-015
rhumerus 32.4603 -0.0678064 -9.1342
rradius 39.3959
rwrist -23.06
rhand -14.0577 -4.24697
rfingers 7.12502
rthumb 12.0735 -33.8787
lclavicle -3.97569e-016 -8.59744e-015
lhumerus 30.5056 -0.157025 0.92184
lradius 39.5228
lwrist 1.98482
lhand -4.84948 17.2736
lfingers 7.12502
lthumb 20.938 -313.837
rfemur -27.0423 5.99519 23.843
rtibia 36.1985
rfoot 17.5412 -5.18913
rtoes 13.5334
lfemur -27.2923 -1.10898 -20.9504
ltibia 37.461
lfoot 11.1472 -1.4287
ltoes -3.7887
1593
root 4.46346 11.6644 24.9978 108.061 -2.61571 -3.48695
lowerback -6.74641 0.456191 -2.22719
upperback -10.3204 0.585452 -1.73345
thorax -7.03821 0.395601 -0.574459
lowerneck -4.97577 -4.14652 -11.4923
upperneck -12.3543 -4.06199 16.1044
head -2.12813 -2.08397 6.88953
rclavicle 5.56597e-015 3.65267e-015
rhumerus 31.6011 0.100396 -10.5096
rradius 40.9082
rwrist -23.5937
rhand -14.0143 -3.88559
rfingers 7.12502
rthumb 12.1153 -33.5148
lclavicle 5.56597e-015 3.65267e-015
lhumerus 29.4427 -0.490278 2.36127
lradius 41.5139
lwrist 3.48464
lhand -6.1291 16.933
lfingers 7.12502
lthumb 19.7082 -314.046
rfemur -27.5723 6.00808 23.831
rtibia 35.7978
rfoot 17.2448 -5.26459
rtoes 13.7021
lfemur -27.8661 -1.33644 -20.8098
ltibia 37.114
lfoot 10.8712 -1.58759
ltoes -3.94218
1594
root 4.45586 11.6385 25.0323 108.324 -2.62666 -3.38503
lowerback -6.93524 0.439165 -2.2514
upperback -10.2311 0.568635 -1.79744
thorax -6.83265 0.384821 -0.624199
lowerneck -5.97991 -4.29672 -11.4091
upperneck -12.2966 -4.18009 16.2084
head -1.92681 -2.11175 6.8836
rclavicle -4.96962e-015 -1.57785e-015
rhumerus 30.6884 0.259275 -11.8693
rradius 42.5724
rwrist -24.0934
rhand -14.074 -3.49404
rfingers 7.12502
rthumb 12.0578 -33.1267
lclavicle -4.96962e-015 -1.57785e-015
lhumerus 28.4225 -0.859256 3.86698
lradius 43.6519
lwrist 4.7943
lhand -7.44198 16.5027
lfingers 7.12502
lthumb 18.4457 -314.352
rfemur -28.1363 5.99411 23.8077
rtibia 35.4111
rfoot 16.926 -5.31999
rtoes 13.792
lfemur -28.4587 -1.55239 -20.6839
ltibia 36.7553
lfoot 10.5792 -1.68734
ltoes -4.00396
1595
root 4.44807 11.6122 25.067 108.572 -2.65414 -3.30296
lowerback -7.08754 0.454639 -2.37382
upperback -10.1757 0.599531 -1.8461
thorax -6.68769 0.407274 -0.603933
lowerneck -6.85474 -4.45716 -11.2734
upperneck -12.2784 -4.33255 16.2112
head -1.76036 -2.16152 6.83859
rclavicle -1.0635e-014 7.56624e-015
rhumerus 29.6558 0.54048 -13.1519
rradius 44.4107
rwrist -24.59
rhand -14.2299 -3.06108
rfingers 7.12502
rthumb 11.9074 -32.7025
lclavicle -1.0635e-014 7.56624e-015
lhumerus 27.456 -1.40025 5.45305
lradius 45.9216
lwrist 5.89357
lhand -8.76748 15.9723
lfingers 7.12502
lthumb 17.1702 -314.766
rfemur -28.7196 5.96011 23.7687
rtibia 35.043
rfoot 16.5804 -5.33087
rtoes 13.8063
lfemur -29.0531 -1.75857 -20.5764
ltibia 36.3854
lfoot 10.2721 -1.74473
ltoes -4.06561
1596
root 4.44001 11.5858 25.1015 108.785 -2.69433 -3.2406
lowerback -7.17871 0.509014 -2.60613
upperback -10.1798 0.686968 -1.86148
thorax -6.64577 0.469455 -0.488826
lowerneck -7.50198 -4.62317 -11.1523
upperneck -12.3169 -4.5155 16.1248
head -1.64832 -2.23364 6.77215
rclavicle 1.57537e-014 2.45996e-015
rhumerus 28.4677 1.01617 -14.3054
rradius 46.4328
rwrist -25.0785
rhand -14.5009 -2.56715
rfingers 7.12502
rthumb 11.6461 -32.2235
lclavicle 1.57537e-014 2.45996e-015
lhumerus 26.5416 -2.14701 7.18914
lradius 48.2952
lwrist 6.86033
lhand -10.0272 15.291
lfingers 7.12502
lthumb 15.9574 -315.346
rfemur -29.3041 5.91831 23.7174
rtibia 34.6978
rfoot 16.1965 -5.29455
rtoes 13.7405
lfemur -29.6321 -1.96092 -20.4803
ltibia 36.0071
lfoot 9.96693 -1.77018
ltoes -4.03765
1597
root 4.43175 11.5596 25.1353 108.945 -2.75337 -3.20026
lowerback -7.18684 0.595806 -2.94362
upperback -10.242 0.82036 -1.84246
thorax -6.71906 0.566033 -0.281152
lowerneck -7.90676 -4.78356 -11.0803
upperneck -12.4046 -4.7116 15.9527
head -1.59195 -2.31857 6.69194
rclavicle -4.03781e-015 2.10595e-014
rhumerus 27.1393 1.68402 -15.3606
rradius 48.6227
rwrist -25.5316
rhand -14.8483 -1.98906
rfingers 7.12502
rthumb 11.311 -31.6641
lclavicle -4.03781e-015 2.10595e-014
lhumerus 25.6445 -3.10467 9.08182
lradius 50.7565
lwrist 7.67675
lhand -11.234 14.5013
lfingers 7.12502
lthumb 14.795 -316.047
rfemur -29.8668 5.89608 23.6404
rtibia 34.3763
rfoot 15.773 -5.22795
rtoes 13.6294
lfemur -30.1752 -2.16435 -20.4012
ltibia 35.625
lfoot 9.65497 -1.76355
ltoes -4.02382
1598
root 4.42319 11.5337 25.1682 109.043 -2.82653 -3.18579
lowerback -7.10086 0.706198 -3.35792
upperback -10.3521 0.984863 -1.79236
thorax -6.90426 0.687832 -0.00124454
lowerneck -8.12485 -4.93799 -11.0629
upperneck -12.5305 -4.91319 15.7247
head -1.57829 -2.41047 6.60764
rclavicle 4.96962e-016 -1.0871e-015
rhumerus 25.7036 2.51696 -16.3662
rradius 50.9595
rwrist -25.9066
rhand -15.2062 -1.32225
rfingers 7.12502
rthumb 10.9658 -31.0159
lclavicle 4.96962e-016 -1.0871e-015
lhumerus 24.7154 -4.24899 11.1181
lradius 53.2991
lwrist 8.33983
lhand -12.3794 13.6514
lfingers 7.12502
lthumb 13.6914 -316.819
rfemur -30.3952 5.92514 23.5332
rtibia 34.0755
rfoot 15.3088 -5.15527
rtoes 13.5294
lfemur -30.6774 -2.36924 -20.3332
ltibia 35.2485
lfoot 9.33438 -1.73988
ltoes -4.04915
1599
root 4.41438 11.5079 25.1998 109.088 -2.90305 -3.1918
lowerback -6.93073 0.824109 -3.79371
upperback -10.4822 1.15538 -1.7231
thorax -7.16468 0.817422 0.307205
lowerneck -8.2758 -5.08614 -11.1203
upperneck -12.6562 -5.10644 15.5093
head -1.5746 -2.49755 6.54177
rclavicle -1.0138e-014 1.75179e-014
rhumerus 24.2272 3.44769 -17.4162
rradius 53.4014
rwrist -26.1545
rhand -15.536 -0.562643
rfingers 7.12502
rthumb 10.6477 -30.2729
lclavicle -1.0138e-014 1.75179e-014
lhumerus 23.7072 -5.49761 13.2623
lradius 55.9075
lwrist 8.837
lhand -13.4745 12.7587
lfingers 7.12502
lthumb 12.6357 -317.644
rfemur -30.8943 6.02361 23.3999
rtibia 33.791
rfoot 14.8223 -5.1033
rtoes 13.4766
lfemur -31.1511 -2.5824 -20.2613
ltibia 34.8877
lfoot 8.98569 -1.69512
ltoes -4.08491
